<?xml version="1.0" standalone="no"?>
<svg xmlns:xlink="http://www.w3.org/1999/xlink" id="wave" style="transform:rotate(180deg); transition: 0.3s" viewBox="0 0 1440 320" version="1.1" xmlns="http://www.w3.org/2000/svg"><defs><linearGradient id="sw-gradient-0" x1="0" x2="0" y1="1" y2="0"><stop stop-color="rgba(5, 62, 243, 0.51)" offset="0%"/><stop stop-color="rgba(255, 47.786, 11, 0.61)" offset="100%"/></linearGradient></defs><path style="transform:translate(0, 0px); opacity:1" fill="url(#sw-gradient-0)" d="M0,0L40,21.3C80,43,160,85,240,96C320,107,400,85,480,106.7C560,128,640,192,720,197.3C800,203,880,149,960,149.3C1040,149,1120,203,1200,229.3C1280,256,1360,256,1440,240C1520,224,1600,192,1680,176C1760,160,1840,160,1920,144C2000,128,2080,96,2160,69.3C2240,43,2320,21,2400,32C2480,43,2560,85,2640,96C2720,107,2800,85,2880,112C2960,139,3040,213,3120,240C3200,267,3280,245,3360,224C3440,203,3520,181,3600,149.3C3680,117,3760,75,3840,74.7C3920,75,4000,117,4080,133.3C4160,149,4240,139,4320,117.3C4400,96,4480,64,4560,69.3C4640,75,4720,117,4800,128C4880,139,4960,117,5040,138.7C5120,160,5200,224,5280,208C5360,192,5440,96,5520,53.3C5600,11,5680,21,5720,26.7L5760,32L5760,320L5720,320C5680,320,5600,320,5520,320C5440,320,5360,320,5280,320C5200,320,5120,320,5040,320C4960,320,4880,320,4800,320C4720,320,4640,320,4560,320C4480,320,4400,320,4320,320C4240,320,4160,320,4080,320C4000,320,3920,320,3840,320C3760,320,3680,320,3600,320C3520,320,3440,320,3360,320C3280,320,3200,320,3120,320C3040,320,2960,320,2880,320C2800,320,2720,320,2640,320C2560,320,2480,320,2400,320C2320,320,2240,320,2160,320C2080,320,2000,320,1920,320C1840,320,1760,320,1680,320C1600,320,1520,320,1440,320C1360,320,1280,320,1200,320C1120,320,1040,320,960,320C880,320,800,320,720,320C640,320,560,320,480,320C400,320,320,320,240,320C160,320,80,320,40,320L0,320Z"/></svg>