<?xml version="1.0" standalone="no"?>
<svg xmlns:xlink="http://www.w3.org/1999/xlink" id="wave" style="transform:rotate(180deg); transition: 0.3s" viewBox="0 0 1440 340" version="1.1" xmlns="http://www.w3.org/2000/svg"><defs><linearGradient id="sw-gradient-0" x1="0" x2="0" y1="1" y2="0"><stop stop-color="rgba(5, 62, 243, 0.51)" offset="0%"/><stop stop-color="rgba(255, 47.786, 11, 0.61)" offset="100%"/></linearGradient></defs><path style="transform:translate(0, 0px); opacity:1" fill="url(#sw-gradient-0)" d="M0,0L60,45.3C120,91,240,181,360,209.7C480,238,600,204,720,204C840,204,960,238,1080,255C1200,272,1320,272,1440,277.7C1560,283,1680,295,1800,283.3C1920,272,2040,238,2160,221C2280,204,2400,204,2520,221C2640,238,2760,272,2880,272C3000,272,3120,238,3240,187C3360,136,3480,68,3600,45.3C3720,23,3840,45,3960,96.3C4080,147,4200,227,4320,260.7C4440,295,4560,283,4680,232.3C4800,181,4920,91,5040,56.7C5160,23,5280,45,5400,51C5520,57,5640,45,5760,68C5880,91,6000,147,6120,170C6240,193,6360,181,6480,192.7C6600,204,6720,238,6840,221C6960,204,7080,136,7200,130.3C7320,125,7440,181,7560,215.3C7680,249,7800,261,7920,238C8040,215,8160,159,8280,124.7C8400,91,8520,79,8580,73.7L8640,68L8640,340L8580,340C8520,340,8400,340,8280,340C8160,340,8040,340,7920,340C7800,340,7680,340,7560,340C7440,340,7320,340,7200,340C7080,340,6960,340,6840,340C6720,340,6600,340,6480,340C6360,340,6240,340,6120,340C6000,340,5880,340,5760,340C5640,340,5520,340,5400,340C5280,340,5160,340,5040,340C4920,340,4800,340,4680,340C4560,340,4440,340,4320,340C4200,340,4080,340,3960,340C3840,340,3720,340,3600,340C3480,340,3360,340,3240,340C3120,340,3000,340,2880,340C2760,340,2640,340,2520,340C2400,340,2280,340,2160,340C2040,340,1920,340,1800,340C1680,340,1560,340,1440,340C1320,340,1200,340,1080,340C960,340,840,340,720,340C600,340,480,340,360,340C240,340,120,340,60,340L0,340Z"/></svg>