<?xml version="1.0" standalone="no"?>
<svg xmlns:xlink="http://www.w3.org/1999/xlink" id="wave" style="transform:rotate(0deg); transition: 0.3s" viewBox="0 0 1440 490" version="1.1" xmlns="http://www.w3.org/2000/svg"><defs><linearGradient id="sw-gradient-0" x1="0" x2="0" y1="1" y2="0"><stop stop-color="rgba(5, 62, 243, 0.51)" offset="0%"/><stop stop-color="rgba(255, 47.786, 11, 0.61)" offset="100%"/></linearGradient></defs><path style="transform:translate(0, 0px); opacity:1" fill="url(#sw-gradient-0)" d="M0,0L34.3,16.3C68.6,33,137,65,206,81.7C274.3,98,343,98,411,98C480,98,549,98,617,122.5C685.7,147,754,196,823,187.8C891.4,180,960,114,1029,130.7C1097.1,147,1166,245,1234,236.8C1302.9,229,1371,114,1440,89.8C1508.6,65,1577,131,1646,130.7C1714.3,131,1783,65,1851,81.7C1920,98,1989,196,2057,245C2125.7,294,2194,294,2263,269.5C2331.4,245,2400,196,2469,163.3C2537.1,131,2606,114,2674,114.3C2742.9,114,2811,131,2880,114.3C2948.6,98,3017,49,3086,89.8C3154.3,131,3223,261,3291,261.3C3360,261,3429,131,3497,138.8C3565.7,147,3634,294,3703,359.3C3771.4,425,3840,408,3909,334.8C3977.1,261,4046,131,4114,130.7C4182.9,131,4251,261,4320,277.7C4388.6,294,4457,196,4526,171.5C4594.3,147,4663,196,4731,204.2C4800,212,4869,180,4903,163.3L4937.1,147L4937.1,490L4902.9,490C4868.6,490,4800,490,4731,490C4662.9,490,4594,490,4526,490C4457.1,490,4389,490,4320,490C4251.4,490,4183,490,4114,490C4045.7,490,3977,490,3909,490C3840,490,3771,490,3703,490C3634.3,490,3566,490,3497,490C3428.6,490,3360,490,3291,490C3222.9,490,3154,490,3086,490C3017.1,490,2949,490,2880,490C2811.4,490,2743,490,2674,490C2605.7,490,2537,490,2469,490C2400,490,2331,490,2263,490C2194.3,490,2126,490,2057,490C1988.6,490,1920,490,1851,490C1782.9,490,1714,490,1646,490C1577.1,490,1509,490,1440,490C1371.4,490,1303,490,1234,490C1165.7,490,1097,490,1029,490C960,490,891,490,823,490C754.3,490,686,490,617,490C548.6,490,480,490,411,490C342.9,490,274,490,206,490C137.1,490,69,490,34,490L0,490Z"/></svg>