<?xml version="1.0" standalone="no"?>
<svg xmlns:xlink="http://www.w3.org/1999/xlink" id="wave" style="transform:rotate(180deg); transition: 0.3s" viewBox="0 0 1440 450" version="1.1" xmlns="http://www.w3.org/2000/svg"><defs><linearGradient id="sw-gradient-0" x1="0" x2="0" y1="1" y2="0"><stop stop-color="rgba(5, 62, 243, 0.51)" offset="0%"/><stop stop-color="rgba(255, 47.786, 11, 0.61)" offset="100%"/></linearGradient></defs><path style="transform:translate(0, 0px); opacity:1" fill="url(#sw-gradient-0)" d="M0,135L80,157.5C160,180,320,225,480,232.5C640,240,800,210,960,232.5C1120,255,1280,330,1440,352.5C1600,375,1760,345,1920,345C2080,345,2240,375,2400,337.5C2560,300,2720,195,2880,150C3040,105,3200,120,3360,172.5C3520,225,3680,315,3840,337.5C4000,360,4160,315,4320,277.5C4480,240,4640,210,4800,165C4960,120,5120,60,5280,52.5C5440,45,5600,90,5760,105C5920,120,6080,105,6240,90C6400,75,6560,60,6720,90C6880,120,7040,195,7200,217.5C7360,240,7520,210,7680,172.5C7840,135,8000,90,8160,67.5C8320,45,8480,45,8640,105C8800,165,8960,285,9120,330C9280,375,9440,345,9600,345C9760,345,9920,375,10080,382.5C10240,390,10400,375,10560,345C10720,315,10880,270,11040,262.5C11200,255,11360,285,11440,300L11520,315L11520,450L11440,450C11360,450,11200,450,11040,450C10880,450,10720,450,10560,450C10400,450,10240,450,10080,450C9920,450,9760,450,9600,450C9440,450,9280,450,9120,450C8960,450,8800,450,8640,450C8480,450,8320,450,8160,450C8000,450,7840,450,7680,450C7520,450,7360,450,7200,450C7040,450,6880,450,6720,450C6560,450,6400,450,6240,450C6080,450,5920,450,5760,450C5600,450,5440,450,5280,450C5120,450,4960,450,4800,450C4640,450,4480,450,4320,450C4160,450,4000,450,3840,450C3680,450,3520,450,3360,450C3200,450,3040,450,2880,450C2720,450,2560,450,2400,450C2240,450,2080,450,1920,450C1760,450,1600,450,1440,450C1280,450,1120,450,960,450C800,450,640,450,480,450C320,450,160,450,80,450L0,450Z"/></svg>