<?xml version="1.0" standalone="no"?>
<svg xmlns:xlink="http://www.w3.org/1999/xlink" id="wave" style="transform:rotate(0deg); transition: 0.3s" viewBox="0 0 1440 490" version="1.1" xmlns="http://www.w3.org/2000/svg"><defs><linearGradient id="sw-gradient-0" x1="0" x2="0" y1="1" y2="0"><stop stop-color="rgba(5, 62, 243, 0.51)" offset="0%"/><stop stop-color="rgba(255, 47.786, 11, 0.61)" offset="100%"/></linearGradient></defs><path style="transform:translate(0, 0px); opacity:1" fill="url(#sw-gradient-0)" d="M0,49L48,89.8C96,131,192,212,288,277.7C384,343,480,392,576,383.8C672,376,768,310,864,294C960,278,1056,310,1152,302.2C1248,294,1344,245,1440,204.2C1536,163,1632,131,1728,98C1824,65,1920,33,2016,65.3C2112,98,2208,196,2304,228.7C2400,261,2496,229,2592,179.7C2688,131,2784,65,2880,49C2976,33,3072,65,3168,114.3C3264,163,3360,229,3456,228.7C3552,229,3648,163,3744,122.5C3840,82,3936,65,4032,114.3C4128,163,4224,278,4320,269.5C4416,261,4512,131,4608,114.3C4704,98,4800,196,4896,220.5C4992,245,5088,196,5184,196C5280,196,5376,245,5472,253.2C5568,261,5664,229,5760,253.2C5856,278,5952,359,6048,343C6144,327,6240,212,6336,212.3C6432,212,6528,327,6624,375.7C6720,425,6816,408,6864,400.2L6912,392L6912,490L6864,490C6816,490,6720,490,6624,490C6528,490,6432,490,6336,490C6240,490,6144,490,6048,490C5952,490,5856,490,5760,490C5664,490,5568,490,5472,490C5376,490,5280,490,5184,490C5088,490,4992,490,4896,490C4800,490,4704,490,4608,490C4512,490,4416,490,4320,490C4224,490,4128,490,4032,490C3936,490,3840,490,3744,490C3648,490,3552,490,3456,490C3360,490,3264,490,3168,490C3072,490,2976,490,2880,490C2784,490,2688,490,2592,490C2496,490,2400,490,2304,490C2208,490,2112,490,2016,490C1920,490,1824,490,1728,490C1632,490,1536,490,1440,490C1344,490,1248,490,1152,490C1056,490,960,490,864,490C768,490,672,490,576,490C480,490,384,490,288,490C192,490,96,490,48,490L0,490Z"/></svg>