<?xml version="1.0" standalone="no"?>
<svg xmlns:xlink="http://www.w3.org/1999/xlink" id="wave" style="transform:rotate(0deg); transition: 0.3s" viewBox="0 0 1440 290" version="1.1" xmlns="http://www.w3.org/2000/svg"><defs><linearGradient id="sw-gradient-0" x1="0" x2="0" y1="1" y2="0"><stop stop-color="rgba(5, 62, 243, 0.51)" offset="0%"/><stop stop-color="rgba(255, 47.786, 11, 0.61)" offset="100%"/></linearGradient></defs><path style="transform:translate(0, 0px); opacity:1" fill="url(#sw-gradient-0)" d="M0,0L40,19.3C80,39,160,77,240,87C320,97,400,77,480,96.7C560,116,640,174,720,178.8C800,184,880,135,960,135.3C1040,135,1120,184,1200,207.8C1280,232,1360,232,1440,217.5C1520,203,1600,174,1680,159.5C1760,145,1840,145,1920,130.5C2000,116,2080,87,2160,62.8C2240,39,2320,19,2400,29C2480,39,2560,77,2640,87C2720,97,2800,77,2880,101.5C2960,126,3040,193,3120,217.5C3200,242,3280,222,3360,203C3440,184,3520,164,3600,135.3C3680,106,3760,68,3840,67.7C3920,68,4000,106,4080,120.8C4160,135,4240,126,4320,106.3C4400,87,4480,58,4560,62.8C4640,68,4720,106,4800,116C4880,126,4960,106,5040,125.7C5120,145,5200,203,5280,188.5C5360,174,5440,87,5520,48.3C5600,10,5680,19,5720,24.2L5760,29L5760,290L5720,290C5680,290,5600,290,5520,290C5440,290,5360,290,5280,290C5200,290,5120,290,5040,290C4960,290,4880,290,4800,290C4720,290,4640,290,4560,290C4480,290,4400,290,4320,290C4240,290,4160,290,4080,290C4000,290,3920,290,3840,290C3760,290,3680,290,3600,290C3520,290,3440,290,3360,290C3280,290,3200,290,3120,290C3040,290,2960,290,2880,290C2800,290,2720,290,2640,290C2560,290,2480,290,2400,290C2320,290,2240,290,2160,290C2080,290,2000,290,1920,290C1840,290,1760,290,1680,290C1600,290,1520,290,1440,290C1360,290,1280,290,1200,290C1120,290,1040,290,960,290C880,290,800,290,720,290C640,290,560,290,480,290C400,290,320,290,240,290C160,290,80,290,40,290L0,290Z"/></svg>